<svg width="946" height="524" viewBox="0 0 946 524" fill="none" xmlns="http://www.w3.org/2000/svg">
<path d="M739.514 329.369C739.514 329.369 633.118 340.212 551.628 293.37C637.502 234.383 692.293 104.482 587.691 27.4954C476.314 -54.6957 347.405 61.1092 356.769 193.829C357.167 202.938 362.148 239.154 366.731 246.961C250.373 285.129 192.992 260.84 192.992 260.84L162.308 389.223L223.276 394.861L223.276 394.645C223.276 394.645 224.073 394.861 224.273 394.861C283.049 396.813 361.949 387.705 441.846 354.959C505.603 405.054 594.864 426.74 670.974 435.198C671.373 435.415 671.771 435.415 671.971 435.415L754.059 441.704L739.514 329.369ZM470.337 142.65C482.092 120.747 520.746 98.6265 536.286 131.59C554.418 171.059 510.186 195.131 467.548 208.142C460.375 186.456 459.578 162.818 470.337 142.65Z" fill="#F8C200"/>
<path d="M231.672 278.342C214.477 306.452 208.988 357.313 208.262 384.812C208.189 387.56 205.959 389.764 203.209 389.764H161.726C161.139 389.764 160.559 389.858 160.023 390.096C154.571 392.518 143.651 401.157 137.683 419.473C118.336 490.325 83.311 511.027 68.217 512.522C-7.93867 521.939 6.64069 411.812 23.4498 355.571C32.712 310.541 58.2345 217.567 86.2268 205.908C113.842 194.406 170.769 238.692 196.836 263.209C197.537 263.868 198.39 264.299 199.336 264.477L228.237 269.934C231.959 270.637 233.648 275.112 231.672 278.342Z" stroke="#48001D" stroke-width="20"/>
<path d="M198.534 263.36L228.238 270.452C231.544 271.241 233.124 275.03 231.536 278.034C217.158 305.241 210.122 344.371 207.903 384.991C207.757 387.661 205.56 389.764 202.886 389.764H163.088C160.613 389.764 158.498 387.959 158.254 385.495C154.463 347.145 171.828 284.06 181.069 257.802C182.203 254.578 186.178 253.597 188.786 255.807L196.463 262.311C197.062 262.818 197.771 263.178 198.534 263.36Z" fill="#48001D" stroke="#48001D"/>
<path d="M140.44 418.647L106.342 403.88C101.184 401.647 98.9205 395.703 101.285 390.604C103.65 385.506 109.749 383.183 114.906 385.417L149.005 400.184L140.44 418.647Z" fill="#48001D"/>
<path d="M130.148 448.06L96.0495 433.293C90.892 431.06 88.6282 425.116 90.9932 420.017C93.3582 414.919 99.4564 412.596 104.614 414.83L138.713 429.597L130.148 448.06Z" fill="#48001D"/>
<path d="M114.712 476.087L80.613 461.32C75.4555 459.087 73.1917 453.143 75.5567 448.044C77.9217 442.946 84.0199 440.623 89.1774 442.857L123.276 457.623L114.712 476.087Z" fill="#48001D"/>
<path d="M713.585 438.783C730.779 410.673 736.269 359.812 736.995 332.313C737.068 329.565 739.298 327.361 742.047 327.361H783.531C784.118 327.361 784.698 327.267 785.234 327.029C790.686 324.607 801.606 315.968 807.573 297.652C826.921 226.8 861.946 206.098 877.04 204.603C953.196 195.186 938.616 305.313 921.807 361.554C912.545 406.584 887.022 499.558 859.03 511.217C831.415 522.719 774.488 478.433 748.421 453.916C747.72 453.257 746.866 452.826 745.921 452.648L717.02 447.191C713.298 446.488 711.609 442.013 713.585 438.783Z" stroke="#48001D" stroke-width="20"/>
<path d="M746.723 453.765L717.019 446.673C713.713 445.884 712.133 442.095 713.721 439.091C728.099 411.884 735.135 372.754 737.354 332.134C737.5 329.464 739.697 327.361 742.371 327.361H782.169C784.644 327.361 786.759 329.166 787.003 331.63C790.794 369.98 773.429 433.065 764.188 459.323C763.054 462.547 759.079 463.528 756.471 461.318L748.794 454.814C748.195 454.307 747.486 453.947 746.723 453.765Z" fill="#48001D" stroke="#48001D"/>
<path d="M804.817 298.478L838.916 313.245C844.074 315.478 846.337 321.422 843.972 326.521C841.607 331.619 835.509 333.942 830.352 331.708L796.253 316.941L804.817 298.478Z" fill="#48001D"/>
<path d="M815.109 269.065L849.208 283.832C854.366 286.065 856.629 292.009 854.264 297.108C851.899 302.206 845.801 304.529 840.644 302.295L806.545 287.528L815.109 269.065Z" fill="#48001D"/>
<path d="M830.545 241.038L864.644 255.805C869.801 258.038 872.065 263.982 869.7 269.081C867.335 274.179 861.237 276.502 856.079 274.268L821.98 259.502L830.545 241.038Z" fill="#48001D"/>
</svg>
